<mxfile host="Electron" modified="2023-05-03T07:00:17.176Z" agent="Mozilla/5.0 (Windows NT 10.0; Win64; x64) AppleWebKit/537.36 (KHTML, like Gecko) draw.io/21.2.1 Chrome/112.0.5615.87 Electron/24.1.2 Safari/537.36" etag="-ZZUGyzur05Z9dPuZYHK" version="21.2.1" type="device">
  <diagram name="第 1 页" id="6_HxzT0Q5W8QO_RAKAHN">
    <mxGraphModel dx="898" dy="579" grid="1" gridSize="10" guides="1" tooltips="1" connect="1" arrows="1" fold="1" page="1" pageScale="1" pageWidth="827" pageHeight="1169" math="0" shadow="0">
      <root>
        <mxCell id="0" />
        <mxCell id="1" parent="0" />
        <mxCell id="JPOE9ohCDTVTaBF0mj38-1" value="" style="endArrow=classic;html=1;rounded=0;strokeWidth=3;" parent="1" edge="1">
          <mxGeometry width="50" height="50" relative="1" as="geometry">
            <mxPoint x="120" y="200" as="sourcePoint" />
            <mxPoint x="680" y="200" as="targetPoint" />
          </mxGeometry>
        </mxCell>
        <mxCell id="JPOE9ohCDTVTaBF0mj38-2" value="&lt;font color=&quot;#ffffff&quot; style=&quot;font-size: 16px;&quot;&gt;&lt;b&gt;Version 1&lt;/b&gt;&lt;/font&gt;" style="rounded=1;whiteSpace=wrap;html=1;strokeColor=none;fillColor=#da9a00;arcSize=50;" parent="1" vertex="1">
          <mxGeometry x="120" y="210" width="90" height="40" as="geometry" />
        </mxCell>
        <mxCell id="JPOE9ohCDTVTaBF0mj38-3" value="&lt;font color=&quot;#ffffff&quot; style=&quot;font-size: 16px;&quot;&gt;&lt;b&gt;Version 2&lt;/b&gt;&lt;/font&gt;" style="rounded=1;whiteSpace=wrap;html=1;strokeColor=none;fillColor=#da9a00;arcSize=50;" parent="1" vertex="1">
          <mxGeometry x="238" y="210" width="90" height="40" as="geometry" />
        </mxCell>
        <mxCell id="JPOE9ohCDTVTaBF0mj38-4" value="&lt;font color=&quot;#ffffff&quot; style=&quot;font-size: 16px;&quot;&gt;&lt;b&gt;Version 3&lt;/b&gt;&lt;/font&gt;" style="rounded=1;whiteSpace=wrap;html=1;strokeColor=none;fillColor=#da9a00;arcSize=50;" parent="1" vertex="1">
          <mxGeometry x="355" y="210" width="90" height="40" as="geometry" />
        </mxCell>
        <mxCell id="JPOE9ohCDTVTaBF0mj38-5" value="&lt;font color=&quot;#ffffff&quot; style=&quot;font-size: 16px;&quot;&gt;&lt;b&gt;Version 4&lt;/b&gt;&lt;/font&gt;" style="rounded=1;whiteSpace=wrap;html=1;strokeColor=none;fillColor=#da9a00;arcSize=50;" parent="1" vertex="1">
          <mxGeometry x="473" y="210" width="90" height="40" as="geometry" />
        </mxCell>
        <mxCell id="JPOE9ohCDTVTaBF0mj38-6" value="&lt;font color=&quot;#ffffff&quot; style=&quot;font-size: 16px;&quot;&gt;&lt;b&gt;Version 5&lt;/b&gt;&lt;/font&gt;" style="rounded=1;whiteSpace=wrap;html=1;strokeColor=none;fillColor=#da9a00;arcSize=50;" parent="1" vertex="1">
          <mxGeometry x="590" y="210" width="90" height="40" as="geometry" />
        </mxCell>
        <mxCell id="JPOE9ohCDTVTaBF0mj38-7" value="&lt;b&gt;&lt;font style=&quot;font-size: 18px;&quot;&gt;Checkins Over Time&lt;/font&gt;&lt;/b&gt;" style="text;html=1;strokeColor=none;fillColor=none;align=center;verticalAlign=middle;whiteSpace=wrap;rounded=0;" parent="1" vertex="1">
          <mxGeometry x="305" y="170" width="190" height="30" as="geometry" />
        </mxCell>
        <mxCell id="JPOE9ohCDTVTaBF0mj38-13" style="edgeStyle=orthogonalEdgeStyle;rounded=0;orthogonalLoop=1;jettySize=auto;html=1;exitX=1;exitY=0.5;exitDx=0;exitDy=0;entryX=0;entryY=0.5;entryDx=0;entryDy=0;strokeWidth=2;" parent="1" source="JPOE9ohCDTVTaBF0mj38-8" target="JPOE9ohCDTVTaBF0mj38-10" edge="1">
          <mxGeometry relative="1" as="geometry" />
        </mxCell>
        <mxCell id="JPOE9ohCDTVTaBF0mj38-8" value="&lt;font style=&quot;font-size: 16px;&quot;&gt;&lt;b style=&quot;&quot;&gt;File A&lt;/b&gt;&lt;/font&gt;" style="rounded=1;whiteSpace=wrap;html=1;strokeColor=none;fillColor=#efeee7;arcSize=50;" parent="1" vertex="1">
          <mxGeometry x="120" y="280" width="90" height="40" as="geometry" />
        </mxCell>
        <mxCell id="JPOE9ohCDTVTaBF0mj38-12" style="edgeStyle=orthogonalEdgeStyle;rounded=0;orthogonalLoop=1;jettySize=auto;html=1;entryX=0;entryY=0.5;entryDx=0;entryDy=0;strokeWidth=2;" parent="1" source="JPOE9ohCDTVTaBF0mj38-10" target="JPOE9ohCDTVTaBF0mj38-11" edge="1">
          <mxGeometry relative="1" as="geometry" />
        </mxCell>
        <mxCell id="JPOE9ohCDTVTaBF0mj38-10" value="&lt;font style=&quot;font-size: 16px;&quot;&gt;&lt;b style=&quot;&quot;&gt;Δ1&lt;/b&gt;&lt;/font&gt;" style="rounded=1;whiteSpace=wrap;html=1;strokeColor=none;fillColor=#efeee7;arcSize=50;" parent="1" vertex="1">
          <mxGeometry x="238" y="280" width="90" height="40" as="geometry" />
        </mxCell>
        <mxCell id="JPOE9ohCDTVTaBF0mj38-11" value="&lt;font style=&quot;font-size: 16px;&quot;&gt;&lt;b style=&quot;&quot;&gt;Δ2&lt;/b&gt;&lt;/font&gt;" style="rounded=1;whiteSpace=wrap;html=1;strokeColor=none;fillColor=#efeee7;arcSize=50;" parent="1" vertex="1">
          <mxGeometry x="473" y="280" width="90" height="40" as="geometry" />
        </mxCell>
        <mxCell id="JPOE9ohCDTVTaBF0mj38-14" style="edgeStyle=orthogonalEdgeStyle;rounded=0;orthogonalLoop=1;jettySize=auto;html=1;exitX=1;exitY=0.5;exitDx=0;exitDy=0;entryX=0;entryY=0.5;entryDx=0;entryDy=0;strokeWidth=2;" parent="1" source="JPOE9ohCDTVTaBF0mj38-15" target="JPOE9ohCDTVTaBF0mj38-17" edge="1">
          <mxGeometry relative="1" as="geometry" />
        </mxCell>
        <mxCell id="JPOE9ohCDTVTaBF0mj38-15" value="&lt;font style=&quot;font-size: 16px;&quot;&gt;&lt;b style=&quot;&quot;&gt;File B&lt;/b&gt;&lt;/font&gt;" style="rounded=1;whiteSpace=wrap;html=1;strokeColor=none;fillColor=#efeee7;arcSize=50;" parent="1" vertex="1">
          <mxGeometry x="120" y="360" width="90" height="40" as="geometry" />
        </mxCell>
        <mxCell id="JPOE9ohCDTVTaBF0mj38-16" style="edgeStyle=orthogonalEdgeStyle;rounded=0;orthogonalLoop=1;jettySize=auto;html=1;entryX=0;entryY=0.5;entryDx=0;entryDy=0;strokeWidth=2;" parent="1" source="JPOE9ohCDTVTaBF0mj38-17" target="JPOE9ohCDTVTaBF0mj38-18" edge="1">
          <mxGeometry relative="1" as="geometry" />
        </mxCell>
        <mxCell id="JPOE9ohCDTVTaBF0mj38-17" value="&lt;font style=&quot;font-size: 16px;&quot;&gt;&lt;b style=&quot;&quot;&gt;Δ1&lt;/b&gt;&lt;/font&gt;" style="rounded=1;whiteSpace=wrap;html=1;strokeColor=none;fillColor=#efeee7;arcSize=50;" parent="1" vertex="1">
          <mxGeometry x="473" y="360" width="90" height="40" as="geometry" />
        </mxCell>
        <mxCell id="JPOE9ohCDTVTaBF0mj38-18" value="&lt;font style=&quot;font-size: 16px;&quot;&gt;&lt;b style=&quot;&quot;&gt;Δ2&lt;/b&gt;&lt;/font&gt;" style="rounded=1;whiteSpace=wrap;html=1;strokeColor=none;fillColor=#efeee7;arcSize=50;" parent="1" vertex="1">
          <mxGeometry x="590" y="360" width="90" height="40" as="geometry" />
        </mxCell>
        <mxCell id="JPOE9ohCDTVTaBF0mj38-19" style="edgeStyle=orthogonalEdgeStyle;rounded=0;orthogonalLoop=1;jettySize=auto;html=1;exitX=1;exitY=0.5;exitDx=0;exitDy=0;entryX=0;entryY=0.5;entryDx=0;entryDy=0;strokeWidth=2;" parent="1" source="JPOE9ohCDTVTaBF0mj38-20" target="JPOE9ohCDTVTaBF0mj38-22" edge="1">
          <mxGeometry relative="1" as="geometry" />
        </mxCell>
        <mxCell id="JPOE9ohCDTVTaBF0mj38-20" value="&lt;font style=&quot;font-size: 16px;&quot;&gt;&lt;b style=&quot;&quot;&gt;File C&lt;/b&gt;&lt;/font&gt;" style="rounded=1;whiteSpace=wrap;html=1;strokeColor=none;fillColor=#efeee7;arcSize=50;" parent="1" vertex="1">
          <mxGeometry x="120" y="440" width="90" height="40" as="geometry" />
        </mxCell>
        <mxCell id="JPOE9ohCDTVTaBF0mj38-21" style="edgeStyle=orthogonalEdgeStyle;rounded=0;orthogonalLoop=1;jettySize=auto;html=1;entryX=0;entryY=0.5;entryDx=0;entryDy=0;strokeWidth=2;" parent="1" source="JPOE9ohCDTVTaBF0mj38-22" target="JPOE9ohCDTVTaBF0mj38-23" edge="1">
          <mxGeometry relative="1" as="geometry" />
        </mxCell>
        <mxCell id="JPOE9ohCDTVTaBF0mj38-22" value="&lt;font style=&quot;font-size: 16px;&quot;&gt;&lt;b style=&quot;&quot;&gt;Δ1&lt;/b&gt;&lt;/font&gt;" style="rounded=1;whiteSpace=wrap;html=1;strokeColor=none;fillColor=#efeee7;arcSize=50;" parent="1" vertex="1">
          <mxGeometry x="238" y="440" width="90" height="40" as="geometry" />
        </mxCell>
        <mxCell id="JPOE9ohCDTVTaBF0mj38-25" style="edgeStyle=orthogonalEdgeStyle;rounded=0;orthogonalLoop=1;jettySize=auto;html=1;entryX=0;entryY=0.5;entryDx=0;entryDy=0;strokeWidth=2;" parent="1" source="JPOE9ohCDTVTaBF0mj38-23" target="JPOE9ohCDTVTaBF0mj38-24" edge="1">
          <mxGeometry relative="1" as="geometry" />
        </mxCell>
        <mxCell id="JPOE9ohCDTVTaBF0mj38-23" value="&lt;font style=&quot;font-size: 16px;&quot;&gt;&lt;b style=&quot;&quot;&gt;Δ2&lt;/b&gt;&lt;/font&gt;" style="rounded=1;whiteSpace=wrap;html=1;strokeColor=none;fillColor=#efeee7;arcSize=50;" parent="1" vertex="1">
          <mxGeometry x="355" y="440" width="90" height="40" as="geometry" />
        </mxCell>
        <mxCell id="JPOE9ohCDTVTaBF0mj38-24" value="&lt;font style=&quot;font-size: 16px;&quot;&gt;&lt;b style=&quot;&quot;&gt;Δ3&lt;/b&gt;&lt;/font&gt;" style="rounded=1;whiteSpace=wrap;html=1;strokeColor=none;fillColor=#efeee7;arcSize=50;" parent="1" vertex="1">
          <mxGeometry x="590" y="440" width="90" height="40" as="geometry" />
        </mxCell>
      </root>
    </mxGraphModel>
  </diagram>
</mxfile>
